<?xml version="1.0" encoding="utf-8" standalone="no"?>
<!DOCTYPE svg PUBLIC "-//W3C//DTD SVG 1.1//EN"
  "http://www.w3.org/Graphics/SVG/1.1/DTD/svg11.dtd">
<svg height="504pt" version="1.1" viewBox="0 0 720 504" width="720pt" xmlns="http://www.w3.org/2000/svg" xmlns:xlink="http://www.w3.org/1999/xlink">
 <metadata>
  <rdf:RDF xmlns:cc="http://creativecommons.org/ns#" xmlns:dc="http://purl.org/dc/elements/1.1/" xmlns:rdf="http://www.w3.org/1999/02/22-rdf-syntax-ns#">
   <cc:Work>
    <dc:type rdf:resource="http://purl.org/dc/dcmitype/StillImage"/>
    <dc:date>2023-10-25T12:25:50.845591</dc:date>
    <dc:format>image/svg+xml</dc:format>
    <dc:creator>
     <cc:Agent>
      <dc:title>Matplotlib v3.4.3, https://matplotlib.org/</dc:title>
     </cc:Agent>
    </dc:creator>
   </cc:Work>
  </rdf:RDF>
 </metadata>
 <defs>
  <style type="text/css">*{stroke-linecap:butt;stroke-linejoin:round;}</style>
 </defs>
 <g id="figure_1">
  <g id="patch_1">
   <path d="M 0 504 
L 720 504 
L 720 0 
L 0 0 
z
" style="fill:#ffffff;"/>
  </g>
  <g id="axes_1">
   <g id="patch_2">
    <path d="M 90 448.56 
L 648 448.56 
L 648 60.48 
L 90 60.48 
z
" style="fill:#ffffff;"/>
   </g>
   <g id="matplotlib.axis_1">
    <g id="xtick_1">
     <g id="line2d_1">
      <path clip-path="url(#p2b63705621)" d="M 90 448.56 
L 90 60.48 
" style="fill:none;stroke:#b0b0b0;stroke-linecap:square;stroke-width:0.8;"/>
     </g>
     <g id="line2d_2">
      <defs>
       <path d="M 0 0 
L 0 3.5 
" id="m4f860ed772" style="stroke:#000000;stroke-width:0.8;"/>
      </defs>
      <g>
       <use style="stroke:#000000;stroke-width:0.8;" x="90" xlink:href="#m4f860ed772" y="448.56"/>
      </g>
     </g>
     <g id="text_1">
      <!-- 0 -->
      <g transform="translate(86.81875 463.158437)scale(0.1 -0.1)">
       <defs>
        <path d="M 2034 4250 
Q 1547 4250 1301 3770 
Q 1056 3291 1056 2328 
Q 1056 1369 1301 889 
Q 1547 409 2034 409 
Q 2525 409 2770 889 
Q 3016 1369 3016 2328 
Q 3016 3291 2770 3770 
Q 2525 4250 2034 4250 
z
M 2034 4750 
Q 2819 4750 3233 4129 
Q 3647 3509 3647 2328 
Q 3647 1150 3233 529 
Q 2819 -91 2034 -91 
Q 1250 -91 836 529 
Q 422 1150 422 2328 
Q 422 3509 836 4129 
Q 1250 4750 2034 4750 
z
" id="DejaVuSans-30" transform="scale(0.015625)"/>
       </defs>
       <use xlink:href="#DejaVuSans-30"/>
      </g>
     </g>
    </g>
    <g id="xtick_2">
     <g id="line2d_3">
      <path clip-path="url(#p2b63705621)" d="M 201.6 448.56 
L 201.6 60.48 
" style="fill:none;stroke:#b0b0b0;stroke-linecap:square;stroke-width:0.8;"/>
     </g>
     <g id="line2d_4">
      <g>
       <use style="stroke:#000000;stroke-width:0.8;" x="201.6" xlink:href="#m4f860ed772" y="448.56"/>
      </g>
     </g>
     <g id="text_2">
      <!-- 2 -->
      <g transform="translate(198.41875 463.158437)scale(0.1 -0.1)">
       <defs>
        <path d="M 1228 531 
L 3431 531 
L 3431 0 
L 469 0 
L 469 531 
Q 828 903 1448 1529 
Q 2069 2156 2228 2338 
Q 2531 2678 2651 2914 
Q 2772 3150 2772 3378 
Q 2772 3750 2511 3984 
Q 2250 4219 1831 4219 
Q 1534 4219 1204 4116 
Q 875 4013 500 3803 
L 500 4441 
Q 881 4594 1212 4672 
Q 1544 4750 1819 4750 
Q 2544 4750 2975 4387 
Q 3406 4025 3406 3419 
Q 3406 3131 3298 2873 
Q 3191 2616 2906 2266 
Q 2828 2175 2409 1742 
Q 1991 1309 1228 531 
z
" id="DejaVuSans-32" transform="scale(0.015625)"/>
       </defs>
       <use xlink:href="#DejaVuSans-32"/>
      </g>
     </g>
    </g>
    <g id="xtick_3">
     <g id="line2d_5">
      <path clip-path="url(#p2b63705621)" d="M 313.2 448.56 
L 313.2 60.48 
" style="fill:none;stroke:#b0b0b0;stroke-linecap:square;stroke-width:0.8;"/>
     </g>
     <g id="line2d_6">
      <g>
       <use style="stroke:#000000;stroke-width:0.8;" x="313.2" xlink:href="#m4f860ed772" y="448.56"/>
      </g>
     </g>
     <g id="text_3">
      <!-- 4 -->
      <g transform="translate(310.01875 463.158437)scale(0.1 -0.1)">
       <defs>
        <path d="M 2419 4116 
L 825 1625 
L 2419 1625 
L 2419 4116 
z
M 2253 4666 
L 3047 4666 
L 3047 1625 
L 3713 1625 
L 3713 1100 
L 3047 1100 
L 3047 0 
L 2419 0 
L 2419 1100 
L 313 1100 
L 313 1709 
L 2253 4666 
z
" id="DejaVuSans-34" transform="scale(0.015625)"/>
       </defs>
       <use xlink:href="#DejaVuSans-34"/>
      </g>
     </g>
    </g>
    <g id="xtick_4">
     <g id="line2d_7">
      <path clip-path="url(#p2b63705621)" d="M 424.8 448.56 
L 424.8 60.48 
" style="fill:none;stroke:#b0b0b0;stroke-linecap:square;stroke-width:0.8;"/>
     </g>
     <g id="line2d_8">
      <g>
       <use style="stroke:#000000;stroke-width:0.8;" x="424.8" xlink:href="#m4f860ed772" y="448.56"/>
      </g>
     </g>
     <g id="text_4">
      <!-- 6 -->
      <g transform="translate(421.61875 463.158437)scale(0.1 -0.1)">
       <defs>
        <path d="M 2113 2584 
Q 1688 2584 1439 2293 
Q 1191 2003 1191 1497 
Q 1191 994 1439 701 
Q 1688 409 2113 409 
Q 2538 409 2786 701 
Q 3034 994 3034 1497 
Q 3034 2003 2786 2293 
Q 2538 2584 2113 2584 
z
M 3366 4563 
L 3366 3988 
Q 3128 4100 2886 4159 
Q 2644 4219 2406 4219 
Q 1781 4219 1451 3797 
Q 1122 3375 1075 2522 
Q 1259 2794 1537 2939 
Q 1816 3084 2150 3084 
Q 2853 3084 3261 2657 
Q 3669 2231 3669 1497 
Q 3669 778 3244 343 
Q 2819 -91 2113 -91 
Q 1303 -91 875 529 
Q 447 1150 447 2328 
Q 447 3434 972 4092 
Q 1497 4750 2381 4750 
Q 2619 4750 2861 4703 
Q 3103 4656 3366 4563 
z
" id="DejaVuSans-36" transform="scale(0.015625)"/>
       </defs>
       <use xlink:href="#DejaVuSans-36"/>
      </g>
     </g>
    </g>
    <g id="xtick_5">
     <g id="line2d_9">
      <path clip-path="url(#p2b63705621)" d="M 536.4 448.56 
L 536.4 60.48 
" style="fill:none;stroke:#b0b0b0;stroke-linecap:square;stroke-width:0.8;"/>
     </g>
     <g id="line2d_10">
      <g>
       <use style="stroke:#000000;stroke-width:0.8;" x="536.4" xlink:href="#m4f860ed772" y="448.56"/>
      </g>
     </g>
     <g id="text_5">
      <!-- 8 -->
      <g transform="translate(533.21875 463.158437)scale(0.1 -0.1)">
       <defs>
        <path d="M 2034 2216 
Q 1584 2216 1326 1975 
Q 1069 1734 1069 1313 
Q 1069 891 1326 650 
Q 1584 409 2034 409 
Q 2484 409 2743 651 
Q 3003 894 3003 1313 
Q 3003 1734 2745 1975 
Q 2488 2216 2034 2216 
z
M 1403 2484 
Q 997 2584 770 2862 
Q 544 3141 544 3541 
Q 544 4100 942 4425 
Q 1341 4750 2034 4750 
Q 2731 4750 3128 4425 
Q 3525 4100 3525 3541 
Q 3525 3141 3298 2862 
Q 3072 2584 2669 2484 
Q 3125 2378 3379 2068 
Q 3634 1759 3634 1313 
Q 3634 634 3220 271 
Q 2806 -91 2034 -91 
Q 1263 -91 848 271 
Q 434 634 434 1313 
Q 434 1759 690 2068 
Q 947 2378 1403 2484 
z
M 1172 3481 
Q 1172 3119 1398 2916 
Q 1625 2713 2034 2713 
Q 2441 2713 2670 2916 
Q 2900 3119 2900 3481 
Q 2900 3844 2670 4047 
Q 2441 4250 2034 4250 
Q 1625 4250 1398 4047 
Q 1172 3844 1172 3481 
z
" id="DejaVuSans-38" transform="scale(0.015625)"/>
       </defs>
       <use xlink:href="#DejaVuSans-38"/>
      </g>
     </g>
    </g>
    <g id="xtick_6">
     <g id="line2d_11">
      <path clip-path="url(#p2b63705621)" d="M 648 448.56 
L 648 60.48 
" style="fill:none;stroke:#b0b0b0;stroke-linecap:square;stroke-width:0.8;"/>
     </g>
     <g id="line2d_12">
      <g>
       <use style="stroke:#000000;stroke-width:0.8;" x="648" xlink:href="#m4f860ed772" y="448.56"/>
      </g>
     </g>
     <g id="text_6">
      <!-- 10 -->
      <g transform="translate(641.6375 463.158437)scale(0.1 -0.1)">
       <defs>
        <path d="M 794 531 
L 1825 531 
L 1825 4091 
L 703 3866 
L 703 4441 
L 1819 4666 
L 2450 4666 
L 2450 531 
L 3481 531 
L 3481 0 
L 794 0 
L 794 531 
z
" id="DejaVuSans-31" transform="scale(0.015625)"/>
       </defs>
       <use xlink:href="#DejaVuSans-31"/>
       <use x="63.623047" xlink:href="#DejaVuSans-30"/>
      </g>
     </g>
    </g>
    <g id="xtick_7">
     <g id="line2d_13">
      <path clip-path="url(#p2b63705621)" d="M 117.9 448.56 
L 117.9 60.48 
" style="fill:none;stroke:#b0b0b0;stroke-dasharray:2.96,1.28;stroke-dashoffset:0;stroke-width:0.8;"/>
     </g>
     <g id="line2d_14">
      <defs>
       <path d="M 0 0 
L 0 2 
" id="m9d3f51dd3c" style="stroke:#000000;stroke-width:0.6;"/>
      </defs>
      <g>
       <use style="stroke:#000000;stroke-width:0.6;" x="117.9" xlink:href="#m9d3f51dd3c" y="448.56"/>
      </g>
     </g>
    </g>
    <g id="xtick_8">
     <g id="line2d_15">
      <path clip-path="url(#p2b63705621)" d="M 145.8 448.56 
L 145.8 60.48 
" style="fill:none;stroke:#b0b0b0;stroke-dasharray:2.96,1.28;stroke-dashoffset:0;stroke-width:0.8;"/>
     </g>
     <g id="line2d_16">
      <g>
       <use style="stroke:#000000;stroke-width:0.6;" x="145.8" xlink:href="#m9d3f51dd3c" y="448.56"/>
      </g>
     </g>
    </g>
    <g id="xtick_9">
     <g id="line2d_17">
      <path clip-path="url(#p2b63705621)" d="M 173.7 448.56 
L 173.7 60.48 
" style="fill:none;stroke:#b0b0b0;stroke-dasharray:2.96,1.28;stroke-dashoffset:0;stroke-width:0.8;"/>
     </g>
     <g id="line2d_18">
      <g>
       <use style="stroke:#000000;stroke-width:0.6;" x="173.7" xlink:href="#m9d3f51dd3c" y="448.56"/>
      </g>
     </g>
    </g>
    <g id="xtick_10">
     <g id="line2d_19">
      <path clip-path="url(#p2b63705621)" d="M 229.5 448.56 
L 229.5 60.48 
" style="fill:none;stroke:#b0b0b0;stroke-dasharray:2.96,1.28;stroke-dashoffset:0;stroke-width:0.8;"/>
     </g>
     <g id="line2d_20">
      <g>
       <use style="stroke:#000000;stroke-width:0.6;" x="229.5" xlink:href="#m9d3f51dd3c" y="448.56"/>
      </g>
     </g>
    </g>
    <g id="xtick_11">
     <g id="line2d_21">
      <path clip-path="url(#p2b63705621)" d="M 257.4 448.56 
L 257.4 60.48 
" style="fill:none;stroke:#b0b0b0;stroke-dasharray:2.96,1.28;stroke-dashoffset:0;stroke-width:0.8;"/>
     </g>
     <g id="line2d_22">
      <g>
       <use style="stroke:#000000;stroke-width:0.6;" x="257.4" xlink:href="#m9d3f51dd3c" y="448.56"/>
      </g>
     </g>
    </g>
    <g id="xtick_12">
     <g id="line2d_23">
      <path clip-path="url(#p2b63705621)" d="M 285.3 448.56 
L 285.3 60.48 
" style="fill:none;stroke:#b0b0b0;stroke-dasharray:2.96,1.28;stroke-dashoffset:0;stroke-width:0.8;"/>
     </g>
     <g id="line2d_24">
      <g>
       <use style="stroke:#000000;stroke-width:0.6;" x="285.3" xlink:href="#m9d3f51dd3c" y="448.56"/>
      </g>
     </g>
    </g>
    <g id="xtick_13">
     <g id="line2d_25">
      <path clip-path="url(#p2b63705621)" d="M 341.1 448.56 
L 341.1 60.48 
" style="fill:none;stroke:#b0b0b0;stroke-dasharray:2.96,1.28;stroke-dashoffset:0;stroke-width:0.8;"/>
     </g>
     <g id="line2d_26">
      <g>
       <use style="stroke:#000000;stroke-width:0.6;" x="341.1" xlink:href="#m9d3f51dd3c" y="448.56"/>
      </g>
     </g>
    </g>
    <g id="xtick_14">
     <g id="line2d_27">
      <path clip-path="url(#p2b63705621)" d="M 369 448.56 
L 369 60.48 
" style="fill:none;stroke:#b0b0b0;stroke-dasharray:2.96,1.28;stroke-dashoffset:0;stroke-width:0.8;"/>
     </g>
     <g id="line2d_28">
      <g>
       <use style="stroke:#000000;stroke-width:0.6;" x="369" xlink:href="#m9d3f51dd3c" y="448.56"/>
      </g>
     </g>
    </g>
    <g id="xtick_15">
     <g id="line2d_29">
      <path clip-path="url(#p2b63705621)" d="M 396.9 448.56 
L 396.9 60.48 
" style="fill:none;stroke:#b0b0b0;stroke-dasharray:2.96,1.28;stroke-dashoffset:0;stroke-width:0.8;"/>
     </g>
     <g id="line2d_30">
      <g>
       <use style="stroke:#000000;stroke-width:0.6;" x="396.9" xlink:href="#m9d3f51dd3c" y="448.56"/>
      </g>
     </g>
    </g>
    <g id="xtick_16">
     <g id="line2d_31">
      <path clip-path="url(#p2b63705621)" d="M 452.7 448.56 
L 452.7 60.48 
" style="fill:none;stroke:#b0b0b0;stroke-dasharray:2.96,1.28;stroke-dashoffset:0;stroke-width:0.8;"/>
     </g>
     <g id="line2d_32">
      <g>
       <use style="stroke:#000000;stroke-width:0.6;" x="452.7" xlink:href="#m9d3f51dd3c" y="448.56"/>
      </g>
     </g>
    </g>
    <g id="xtick_17">
     <g id="line2d_33">
      <path clip-path="url(#p2b63705621)" d="M 480.6 448.56 
L 480.6 60.48 
" style="fill:none;stroke:#b0b0b0;stroke-dasharray:2.96,1.28;stroke-dashoffset:0;stroke-width:0.8;"/>
     </g>
     <g id="line2d_34">
      <g>
       <use style="stroke:#000000;stroke-width:0.6;" x="480.6" xlink:href="#m9d3f51dd3c" y="448.56"/>
      </g>
     </g>
    </g>
    <g id="xtick_18">
     <g id="line2d_35">
      <path clip-path="url(#p2b63705621)" d="M 508.5 448.56 
L 508.5 60.48 
" style="fill:none;stroke:#b0b0b0;stroke-dasharray:2.96,1.28;stroke-dashoffset:0;stroke-width:0.8;"/>
     </g>
     <g id="line2d_36">
      <g>
       <use style="stroke:#000000;stroke-width:0.6;" x="508.5" xlink:href="#m9d3f51dd3c" y="448.56"/>
      </g>
     </g>
    </g>
    <g id="xtick_19">
     <g id="line2d_37">
      <path clip-path="url(#p2b63705621)" d="M 564.3 448.56 
L 564.3 60.48 
" style="fill:none;stroke:#b0b0b0;stroke-dasharray:2.96,1.28;stroke-dashoffset:0;stroke-width:0.8;"/>
     </g>
     <g id="line2d_38">
      <g>
       <use style="stroke:#000000;stroke-width:0.6;" x="564.3" xlink:href="#m9d3f51dd3c" y="448.56"/>
      </g>
     </g>
    </g>
    <g id="xtick_20">
     <g id="line2d_39">
      <path clip-path="url(#p2b63705621)" d="M 592.2 448.56 
L 592.2 60.48 
" style="fill:none;stroke:#b0b0b0;stroke-dasharray:2.96,1.28;stroke-dashoffset:0;stroke-width:0.8;"/>
     </g>
     <g id="line2d_40">
      <g>
       <use style="stroke:#000000;stroke-width:0.6;" x="592.2" xlink:href="#m9d3f51dd3c" y="448.56"/>
      </g>
     </g>
    </g>
    <g id="xtick_21">
     <g id="line2d_41">
      <path clip-path="url(#p2b63705621)" d="M 620.1 448.56 
L 620.1 60.48 
" style="fill:none;stroke:#b0b0b0;stroke-dasharray:2.96,1.28;stroke-dashoffset:0;stroke-width:0.8;"/>
     </g>
     <g id="line2d_42">
      <g>
       <use style="stroke:#000000;stroke-width:0.6;" x="620.1" xlink:href="#m9d3f51dd3c" y="448.56"/>
      </g>
     </g>
    </g>
    <g id="text_7">
     <!-- Время (c) -->
     <g transform="translate(344.299219 476.836563)scale(0.1 -0.1)">
      <defs>
       <path d="M 1259 2228 
L 1259 519 
L 2272 519 
Q 2781 519 3026 730 
Q 3272 941 3272 1375 
Q 3272 1813 3026 2020 
Q 2781 2228 2272 2228 
L 1259 2228 
z
M 1259 4147 
L 1259 2741 
L 2194 2741 
Q 2656 2741 2882 2914 
Q 3109 3088 3109 3444 
Q 3109 3797 2882 3972 
Q 2656 4147 2194 4147 
L 1259 4147 
z
M 628 4666 
L 2241 4666 
Q 2963 4666 3353 4366 
Q 3744 4066 3744 3513 
Q 3744 3084 3544 2831 
Q 3344 2578 2956 2516 
Q 3422 2416 3680 2098 
Q 3938 1781 3938 1306 
Q 3938 681 3513 340 
Q 3088 0 2303 0 
L 628 0 
L 628 4666 
z
" id="DejaVuSans-412" transform="scale(0.015625)"/>
       <path d="M 1159 525 
L 1159 -1331 
L 581 -1331 
L 581 3500 
L 1159 3500 
L 1159 2969 
Q 1341 3281 1617 3432 
Q 1894 3584 2278 3584 
Q 2916 3584 3314 3078 
Q 3713 2572 3713 1747 
Q 3713 922 3314 415 
Q 2916 -91 2278 -91 
Q 1894 -91 1617 61 
Q 1341 213 1159 525 
z
M 3116 1747 
Q 3116 2381 2855 2742 
Q 2594 3103 2138 3103 
Q 1681 3103 1420 2742 
Q 1159 2381 1159 1747 
Q 1159 1113 1420 752 
Q 1681 391 2138 391 
Q 2594 391 2855 752 
Q 3116 1113 3116 1747 
z
" id="DejaVuSans-440" transform="scale(0.015625)"/>
       <path d="M 3597 1894 
L 3597 1613 
L 953 1613 
Q 991 1019 1311 708 
Q 1631 397 2203 397 
Q 2534 397 2845 478 
Q 3156 559 3463 722 
L 3463 178 
Q 3153 47 2828 -22 
Q 2503 -91 2169 -91 
Q 1331 -91 842 396 
Q 353 884 353 1716 
Q 353 2575 817 3079 
Q 1281 3584 2069 3584 
Q 2775 3584 3186 3129 
Q 3597 2675 3597 1894 
z
M 3022 2063 
Q 3016 2534 2758 2815 
Q 2500 3097 2075 3097 
Q 1594 3097 1305 2825 
Q 1016 2553 972 2059 
L 3022 2063 
z
" id="DejaVuSans-435" transform="scale(0.015625)"/>
       <path d="M 581 3500 
L 1422 3500 
L 2416 1156 
L 3413 3500 
L 4247 3500 
L 4247 0 
L 3669 0 
L 3669 2950 
L 2703 672 
L 2128 672 
L 1159 2950 
L 1159 0 
L 581 0 
L 581 3500 
z
" id="DejaVuSans-43c" transform="scale(0.015625)"/>
       <path d="M 1181 2491 
Q 1181 2231 1381 2084 
Q 1581 1938 1953 1938 
L 2728 1938 
L 2728 3041 
L 1953 3041 
Q 1581 3041 1381 2897 
Q 1181 2753 1181 2491 
z
M 363 0 
L 1431 1534 
Q 1069 1616 828 1830 
Q 588 2044 588 2491 
Q 588 2997 923 3248 
Q 1259 3500 1938 3500 
L 3306 3500 
L 3306 0 
L 2728 0 
L 2728 1478 
L 2013 1478 
L 981 0 
L 363 0 
z
" id="DejaVuSans-44f" transform="scale(0.015625)"/>
       <path id="DejaVuSans-20" transform="scale(0.015625)"/>
       <path d="M 1984 4856 
Q 1566 4138 1362 3434 
Q 1159 2731 1159 2009 
Q 1159 1288 1364 580 
Q 1569 -128 1984 -844 
L 1484 -844 
Q 1016 -109 783 600 
Q 550 1309 550 2009 
Q 550 2706 781 3412 
Q 1013 4119 1484 4856 
L 1984 4856 
z
" id="DejaVuSans-28" transform="scale(0.015625)"/>
       <path d="M 3122 3366 
L 3122 2828 
Q 2878 2963 2633 3030 
Q 2388 3097 2138 3097 
Q 1578 3097 1268 2742 
Q 959 2388 959 1747 
Q 959 1106 1268 751 
Q 1578 397 2138 397 
Q 2388 397 2633 464 
Q 2878 531 3122 666 
L 3122 134 
Q 2881 22 2623 -34 
Q 2366 -91 2075 -91 
Q 1284 -91 818 406 
Q 353 903 353 1747 
Q 353 2603 823 3093 
Q 1294 3584 2113 3584 
Q 2378 3584 2631 3529 
Q 2884 3475 3122 3366 
z
" id="DejaVuSans-63" transform="scale(0.015625)"/>
       <path d="M 513 4856 
L 1013 4856 
Q 1481 4119 1714 3412 
Q 1947 2706 1947 2009 
Q 1947 1309 1714 600 
Q 1481 -109 1013 -844 
L 513 -844 
Q 928 -128 1133 580 
Q 1338 1288 1338 2009 
Q 1338 2731 1133 3434 
Q 928 4138 513 4856 
z
" id="DejaVuSans-29" transform="scale(0.015625)"/>
      </defs>
      <use xlink:href="#DejaVuSans-412"/>
      <use x="68.603516" xlink:href="#DejaVuSans-440"/>
      <use x="132.080078" xlink:href="#DejaVuSans-435"/>
      <use x="193.603516" xlink:href="#DejaVuSans-43c"/>
      <use x="269.042969" xlink:href="#DejaVuSans-44f"/>
      <use x="329.199219" xlink:href="#DejaVuSans-20"/>
      <use x="360.986328" xlink:href="#DejaVuSans-28"/>
      <use x="400" xlink:href="#DejaVuSans-63"/>
      <use x="454.980469" xlink:href="#DejaVuSans-29"/>
     </g>
    </g>
   </g>
   <g id="matplotlib.axis_2">
    <g id="ytick_1">
     <g id="line2d_43">
      <path clip-path="url(#p2b63705621)" d="M 90 448.56 
L 648 448.56 
" style="fill:none;stroke:#b0b0b0;stroke-linecap:square;stroke-width:0.8;"/>
     </g>
     <g id="line2d_44">
      <defs>
       <path d="M 0 0 
L -3.5 0 
" id="m114e1e825e" style="stroke:#000000;stroke-width:0.8;"/>
      </defs>
      <g>
       <use style="stroke:#000000;stroke-width:0.8;" x="90" xlink:href="#m114e1e825e" y="448.56"/>
      </g>
     </g>
     <g id="text_8">
      <!-- 0.0 -->
      <g transform="translate(67.096875 452.359219)scale(0.1 -0.1)">
       <defs>
        <path d="M 684 794 
L 1344 794 
L 1344 0 
L 684 0 
L 684 794 
z
" id="DejaVuSans-2e" transform="scale(0.015625)"/>
       </defs>
       <use xlink:href="#DejaVuSans-30"/>
       <use x="63.623047" xlink:href="#DejaVuSans-2e"/>
       <use x="95.410156" xlink:href="#DejaVuSans-30"/>
      </g>
     </g>
    </g>
    <g id="ytick_2">
     <g id="line2d_45">
      <path clip-path="url(#p2b63705621)" d="M 90 393.274799 
L 648 393.274799 
" style="fill:none;stroke:#b0b0b0;stroke-linecap:square;stroke-width:0.8;"/>
     </g>
     <g id="line2d_46">
      <g>
       <use style="stroke:#000000;stroke-width:0.8;" x="90" xlink:href="#m114e1e825e" y="393.274799"/>
      </g>
     </g>
     <g id="text_9">
      <!-- 0.5 -->
      <g transform="translate(67.096875 397.074017)scale(0.1 -0.1)">
       <defs>
        <path d="M 691 4666 
L 3169 4666 
L 3169 4134 
L 1269 4134 
L 1269 2991 
Q 1406 3038 1543 3061 
Q 1681 3084 1819 3084 
Q 2600 3084 3056 2656 
Q 3513 2228 3513 1497 
Q 3513 744 3044 326 
Q 2575 -91 1722 -91 
Q 1428 -91 1123 -41 
Q 819 9 494 109 
L 494 744 
Q 775 591 1075 516 
Q 1375 441 1709 441 
Q 2250 441 2565 725 
Q 2881 1009 2881 1497 
Q 2881 1984 2565 2268 
Q 2250 2553 1709 2553 
Q 1456 2553 1204 2497 
Q 953 2441 691 2322 
L 691 4666 
z
" id="DejaVuSans-35" transform="scale(0.015625)"/>
       </defs>
       <use xlink:href="#DejaVuSans-30"/>
       <use x="63.623047" xlink:href="#DejaVuSans-2e"/>
       <use x="95.410156" xlink:href="#DejaVuSans-35"/>
      </g>
     </g>
    </g>
    <g id="ytick_3">
     <g id="line2d_47">
      <path clip-path="url(#p2b63705621)" d="M 90 337.989597 
L 648 337.989597 
" style="fill:none;stroke:#b0b0b0;stroke-linecap:square;stroke-width:0.8;"/>
     </g>
     <g id="line2d_48">
      <g>
       <use style="stroke:#000000;stroke-width:0.8;" x="90" xlink:href="#m114e1e825e" y="337.989597"/>
      </g>
     </g>
     <g id="text_10">
      <!-- 1.0 -->
      <g transform="translate(67.096875 341.788816)scale(0.1 -0.1)">
       <use xlink:href="#DejaVuSans-31"/>
       <use x="63.623047" xlink:href="#DejaVuSans-2e"/>
       <use x="95.410156" xlink:href="#DejaVuSans-30"/>
      </g>
     </g>
    </g>
    <g id="ytick_4">
     <g id="line2d_49">
      <path clip-path="url(#p2b63705621)" d="M 90 282.704396 
L 648 282.704396 
" style="fill:none;stroke:#b0b0b0;stroke-linecap:square;stroke-width:0.8;"/>
     </g>
     <g id="line2d_50">
      <g>
       <use style="stroke:#000000;stroke-width:0.8;" x="90" xlink:href="#m114e1e825e" y="282.704396"/>
      </g>
     </g>
     <g id="text_11">
      <!-- 1.5 -->
      <g transform="translate(67.096875 286.503614)scale(0.1 -0.1)">
       <use xlink:href="#DejaVuSans-31"/>
       <use x="63.623047" xlink:href="#DejaVuSans-2e"/>
       <use x="95.410156" xlink:href="#DejaVuSans-35"/>
      </g>
     </g>
    </g>
    <g id="ytick_5">
     <g id="line2d_51">
      <path clip-path="url(#p2b63705621)" d="M 90 227.419194 
L 648 227.419194 
" style="fill:none;stroke:#b0b0b0;stroke-linecap:square;stroke-width:0.8;"/>
     </g>
     <g id="line2d_52">
      <g>
       <use style="stroke:#000000;stroke-width:0.8;" x="90" xlink:href="#m114e1e825e" y="227.419194"/>
      </g>
     </g>
     <g id="text_12">
      <!-- 2.0 -->
      <g transform="translate(67.096875 231.218413)scale(0.1 -0.1)">
       <use xlink:href="#DejaVuSans-32"/>
       <use x="63.623047" xlink:href="#DejaVuSans-2e"/>
       <use x="95.410156" xlink:href="#DejaVuSans-30"/>
      </g>
     </g>
    </g>
    <g id="ytick_6">
     <g id="line2d_53">
      <path clip-path="url(#p2b63705621)" d="M 90 172.133993 
L 648 172.133993 
" style="fill:none;stroke:#b0b0b0;stroke-linecap:square;stroke-width:0.8;"/>
     </g>
     <g id="line2d_54">
      <g>
       <use style="stroke:#000000;stroke-width:0.8;" x="90" xlink:href="#m114e1e825e" y="172.133993"/>
      </g>
     </g>
     <g id="text_13">
      <!-- 2.5 -->
      <g transform="translate(67.096875 175.933212)scale(0.1 -0.1)">
       <use xlink:href="#DejaVuSans-32"/>
       <use x="63.623047" xlink:href="#DejaVuSans-2e"/>
       <use x="95.410156" xlink:href="#DejaVuSans-35"/>
      </g>
     </g>
    </g>
    <g id="ytick_7">
     <g id="line2d_55">
      <path clip-path="url(#p2b63705621)" d="M 90 116.848791 
L 648 116.848791 
" style="fill:none;stroke:#b0b0b0;stroke-linecap:square;stroke-width:0.8;"/>
     </g>
     <g id="line2d_56">
      <g>
       <use style="stroke:#000000;stroke-width:0.8;" x="90" xlink:href="#m114e1e825e" y="116.848791"/>
      </g>
     </g>
     <g id="text_14">
      <!-- 3.0 -->
      <g transform="translate(67.096875 120.64801)scale(0.1 -0.1)">
       <defs>
        <path d="M 2597 2516 
Q 3050 2419 3304 2112 
Q 3559 1806 3559 1356 
Q 3559 666 3084 287 
Q 2609 -91 1734 -91 
Q 1441 -91 1130 -33 
Q 819 25 488 141 
L 488 750 
Q 750 597 1062 519 
Q 1375 441 1716 441 
Q 2309 441 2620 675 
Q 2931 909 2931 1356 
Q 2931 1769 2642 2001 
Q 2353 2234 1838 2234 
L 1294 2234 
L 1294 2753 
L 1863 2753 
Q 2328 2753 2575 2939 
Q 2822 3125 2822 3475 
Q 2822 3834 2567 4026 
Q 2313 4219 1838 4219 
Q 1578 4219 1281 4162 
Q 984 4106 628 3988 
L 628 4550 
Q 988 4650 1302 4700 
Q 1616 4750 1894 4750 
Q 2613 4750 3031 4423 
Q 3450 4097 3450 3541 
Q 3450 3153 3228 2886 
Q 3006 2619 2597 2516 
z
" id="DejaVuSans-33" transform="scale(0.015625)"/>
       </defs>
       <use xlink:href="#DejaVuSans-33"/>
       <use x="63.623047" xlink:href="#DejaVuSans-2e"/>
       <use x="95.410156" xlink:href="#DejaVuSans-30"/>
      </g>
     </g>
    </g>
    <g id="ytick_8">
     <g id="line2d_57">
      <path clip-path="url(#p2b63705621)" d="M 90 61.56359 
L 648 61.56359 
" style="fill:none;stroke:#b0b0b0;stroke-linecap:square;stroke-width:0.8;"/>
     </g>
     <g id="line2d_58">
      <g>
       <use style="stroke:#000000;stroke-width:0.8;" x="90" xlink:href="#m114e1e825e" y="61.56359"/>
      </g>
     </g>
     <g id="text_15">
      <!-- 3.5 -->
      <g transform="translate(67.096875 65.362809)scale(0.1 -0.1)">
       <use xlink:href="#DejaVuSans-33"/>
       <use x="63.623047" xlink:href="#DejaVuSans-2e"/>
       <use x="95.410156" xlink:href="#DejaVuSans-35"/>
      </g>
     </g>
    </g>
    <g id="ytick_9">
     <g id="line2d_59">
      <path clip-path="url(#p2b63705621)" d="M 90 437.50296 
L 648 437.50296 
" style="fill:none;stroke:#b0b0b0;stroke-dasharray:2.96,1.28;stroke-dashoffset:0;stroke-width:0.8;"/>
     </g>
     <g id="line2d_60">
      <defs>
       <path d="M 0 0 
L -2 0 
" id="madc0bef430" style="stroke:#000000;stroke-width:0.6;"/>
      </defs>
      <g>
       <use style="stroke:#000000;stroke-width:0.6;" x="90" xlink:href="#madc0bef430" y="437.50296"/>
      </g>
     </g>
    </g>
    <g id="ytick_10">
     <g id="line2d_61">
      <path clip-path="url(#p2b63705621)" d="M 90 426.445919 
L 648 426.445919 
" style="fill:none;stroke:#b0b0b0;stroke-dasharray:2.96,1.28;stroke-dashoffset:0;stroke-width:0.8;"/>
     </g>
     <g id="line2d_62">
      <g>
       <use style="stroke:#000000;stroke-width:0.6;" x="90" xlink:href="#madc0bef430" y="426.445919"/>
      </g>
     </g>
    </g>
    <g id="ytick_11">
     <g id="line2d_63">
      <path clip-path="url(#p2b63705621)" d="M 90 415.388879 
L 648 415.388879 
" style="fill:none;stroke:#b0b0b0;stroke-dasharray:2.96,1.28;stroke-dashoffset:0;stroke-width:0.8;"/>
     </g>
     <g id="line2d_64">
      <g>
       <use style="stroke:#000000;stroke-width:0.6;" x="90" xlink:href="#madc0bef430" y="415.388879"/>
      </g>
     </g>
    </g>
    <g id="ytick_12">
     <g id="line2d_65">
      <path clip-path="url(#p2b63705621)" d="M 90 404.331839 
L 648 404.331839 
" style="fill:none;stroke:#b0b0b0;stroke-dasharray:2.96,1.28;stroke-dashoffset:0;stroke-width:0.8;"/>
     </g>
     <g id="line2d_66">
      <g>
       <use style="stroke:#000000;stroke-width:0.6;" x="90" xlink:href="#madc0bef430" y="404.331839"/>
      </g>
     </g>
    </g>
    <g id="ytick_13">
     <g id="line2d_67">
      <path clip-path="url(#p2b63705621)" d="M 90 382.217758 
L 648 382.217758 
" style="fill:none;stroke:#b0b0b0;stroke-dasharray:2.96,1.28;stroke-dashoffset:0;stroke-width:0.8;"/>
     </g>
     <g id="line2d_68">
      <g>
       <use style="stroke:#000000;stroke-width:0.6;" x="90" xlink:href="#madc0bef430" y="382.217758"/>
      </g>
     </g>
    </g>
    <g id="ytick_14">
     <g id="line2d_69">
      <path clip-path="url(#p2b63705621)" d="M 90 371.160718 
L 648 371.160718 
" style="fill:none;stroke:#b0b0b0;stroke-dasharray:2.96,1.28;stroke-dashoffset:0;stroke-width:0.8;"/>
     </g>
     <g id="line2d_70">
      <g>
       <use style="stroke:#000000;stroke-width:0.6;" x="90" xlink:href="#madc0bef430" y="371.160718"/>
      </g>
     </g>
    </g>
    <g id="ytick_15">
     <g id="line2d_71">
      <path clip-path="url(#p2b63705621)" d="M 90 360.103678 
L 648 360.103678 
" style="fill:none;stroke:#b0b0b0;stroke-dasharray:2.96,1.28;stroke-dashoffset:0;stroke-width:0.8;"/>
     </g>
     <g id="line2d_72">
      <g>
       <use style="stroke:#000000;stroke-width:0.6;" x="90" xlink:href="#madc0bef430" y="360.103678"/>
      </g>
     </g>
    </g>
    <g id="ytick_16">
     <g id="line2d_73">
      <path clip-path="url(#p2b63705621)" d="M 90 349.046637 
L 648 349.046637 
" style="fill:none;stroke:#b0b0b0;stroke-dasharray:2.96,1.28;stroke-dashoffset:0;stroke-width:0.8;"/>
     </g>
     <g id="line2d_74">
      <g>
       <use style="stroke:#000000;stroke-width:0.6;" x="90" xlink:href="#madc0bef430" y="349.046637"/>
      </g>
     </g>
    </g>
    <g id="ytick_17">
     <g id="line2d_75">
      <path clip-path="url(#p2b63705621)" d="M 90 326.932557 
L 648 326.932557 
" style="fill:none;stroke:#b0b0b0;stroke-dasharray:2.96,1.28;stroke-dashoffset:0;stroke-width:0.8;"/>
     </g>
     <g id="line2d_76">
      <g>
       <use style="stroke:#000000;stroke-width:0.6;" x="90" xlink:href="#madc0bef430" y="326.932557"/>
      </g>
     </g>
    </g>
    <g id="ytick_18">
     <g id="line2d_77">
      <path clip-path="url(#p2b63705621)" d="M 90 315.875517 
L 648 315.875517 
" style="fill:none;stroke:#b0b0b0;stroke-dasharray:2.96,1.28;stroke-dashoffset:0;stroke-width:0.8;"/>
     </g>
     <g id="line2d_78">
      <g>
       <use style="stroke:#000000;stroke-width:0.6;" x="90" xlink:href="#madc0bef430" y="315.875517"/>
      </g>
     </g>
    </g>
    <g id="ytick_19">
     <g id="line2d_79">
      <path clip-path="url(#p2b63705621)" d="M 90 304.818476 
L 648 304.818476 
" style="fill:none;stroke:#b0b0b0;stroke-dasharray:2.96,1.28;stroke-dashoffset:0;stroke-width:0.8;"/>
     </g>
     <g id="line2d_80">
      <g>
       <use style="stroke:#000000;stroke-width:0.6;" x="90" xlink:href="#madc0bef430" y="304.818476"/>
      </g>
     </g>
    </g>
    <g id="ytick_20">
     <g id="line2d_81">
      <path clip-path="url(#p2b63705621)" d="M 90 293.761436 
L 648 293.761436 
" style="fill:none;stroke:#b0b0b0;stroke-dasharray:2.96,1.28;stroke-dashoffset:0;stroke-width:0.8;"/>
     </g>
     <g id="line2d_82">
      <g>
       <use style="stroke:#000000;stroke-width:0.6;" x="90" xlink:href="#madc0bef430" y="293.761436"/>
      </g>
     </g>
    </g>
    <g id="ytick_21">
     <g id="line2d_83">
      <path clip-path="url(#p2b63705621)" d="M 90 271.647355 
L 648 271.647355 
" style="fill:none;stroke:#b0b0b0;stroke-dasharray:2.96,1.28;stroke-dashoffset:0;stroke-width:0.8;"/>
     </g>
     <g id="line2d_84">
      <g>
       <use style="stroke:#000000;stroke-width:0.6;" x="90" xlink:href="#madc0bef430" y="271.647355"/>
      </g>
     </g>
    </g>
    <g id="ytick_22">
     <g id="line2d_85">
      <path clip-path="url(#p2b63705621)" d="M 90 260.590315 
L 648 260.590315 
" style="fill:none;stroke:#b0b0b0;stroke-dasharray:2.96,1.28;stroke-dashoffset:0;stroke-width:0.8;"/>
     </g>
     <g id="line2d_86">
      <g>
       <use style="stroke:#000000;stroke-width:0.6;" x="90" xlink:href="#madc0bef430" y="260.590315"/>
      </g>
     </g>
    </g>
    <g id="ytick_23">
     <g id="line2d_87">
      <path clip-path="url(#p2b63705621)" d="M 90 249.533275 
L 648 249.533275 
" style="fill:none;stroke:#b0b0b0;stroke-dasharray:2.96,1.28;stroke-dashoffset:0;stroke-width:0.8;"/>
     </g>
     <g id="line2d_88">
      <g>
       <use style="stroke:#000000;stroke-width:0.6;" x="90" xlink:href="#madc0bef430" y="249.533275"/>
      </g>
     </g>
    </g>
    <g id="ytick_24">
     <g id="line2d_89">
      <path clip-path="url(#p2b63705621)" d="M 90 238.476235 
L 648 238.476235 
" style="fill:none;stroke:#b0b0b0;stroke-dasharray:2.96,1.28;stroke-dashoffset:0;stroke-width:0.8;"/>
     </g>
     <g id="line2d_90">
      <g>
       <use style="stroke:#000000;stroke-width:0.6;" x="90" xlink:href="#madc0bef430" y="238.476235"/>
      </g>
     </g>
    </g>
    <g id="ytick_25">
     <g id="line2d_91">
      <path clip-path="url(#p2b63705621)" d="M 90 216.362154 
L 648 216.362154 
" style="fill:none;stroke:#b0b0b0;stroke-dasharray:2.96,1.28;stroke-dashoffset:0;stroke-width:0.8;"/>
     </g>
     <g id="line2d_92">
      <g>
       <use style="stroke:#000000;stroke-width:0.6;" x="90" xlink:href="#madc0bef430" y="216.362154"/>
      </g>
     </g>
    </g>
    <g id="ytick_26">
     <g id="line2d_93">
      <path clip-path="url(#p2b63705621)" d="M 90 205.305114 
L 648 205.305114 
" style="fill:none;stroke:#b0b0b0;stroke-dasharray:2.96,1.28;stroke-dashoffset:0;stroke-width:0.8;"/>
     </g>
     <g id="line2d_94">
      <g>
       <use style="stroke:#000000;stroke-width:0.6;" x="90" xlink:href="#madc0bef430" y="205.305114"/>
      </g>
     </g>
    </g>
    <g id="ytick_27">
     <g id="line2d_95">
      <path clip-path="url(#p2b63705621)" d="M 90 194.248073 
L 648 194.248073 
" style="fill:none;stroke:#b0b0b0;stroke-dasharray:2.96,1.28;stroke-dashoffset:0;stroke-width:0.8;"/>
     </g>
     <g id="line2d_96">
      <g>
       <use style="stroke:#000000;stroke-width:0.6;" x="90" xlink:href="#madc0bef430" y="194.248073"/>
      </g>
     </g>
    </g>
    <g id="ytick_28">
     <g id="line2d_97">
      <path clip-path="url(#p2b63705621)" d="M 90 183.191033 
L 648 183.191033 
" style="fill:none;stroke:#b0b0b0;stroke-dasharray:2.96,1.28;stroke-dashoffset:0;stroke-width:0.8;"/>
     </g>
     <g id="line2d_98">
      <g>
       <use style="stroke:#000000;stroke-width:0.6;" x="90" xlink:href="#madc0bef430" y="183.191033"/>
      </g>
     </g>
    </g>
    <g id="ytick_29">
     <g id="line2d_99">
      <path clip-path="url(#p2b63705621)" d="M 90 161.076953 
L 648 161.076953 
" style="fill:none;stroke:#b0b0b0;stroke-dasharray:2.96,1.28;stroke-dashoffset:0;stroke-width:0.8;"/>
     </g>
     <g id="line2d_100">
      <g>
       <use style="stroke:#000000;stroke-width:0.6;" x="90" xlink:href="#madc0bef430" y="161.076953"/>
      </g>
     </g>
    </g>
    <g id="ytick_30">
     <g id="line2d_101">
      <path clip-path="url(#p2b63705621)" d="M 90 150.019912 
L 648 150.019912 
" style="fill:none;stroke:#b0b0b0;stroke-dasharray:2.96,1.28;stroke-dashoffset:0;stroke-width:0.8;"/>
     </g>
     <g id="line2d_102">
      <g>
       <use style="stroke:#000000;stroke-width:0.6;" x="90" xlink:href="#madc0bef430" y="150.019912"/>
      </g>
     </g>
    </g>
    <g id="ytick_31">
     <g id="line2d_103">
      <path clip-path="url(#p2b63705621)" d="M 90 138.962872 
L 648 138.962872 
" style="fill:none;stroke:#b0b0b0;stroke-dasharray:2.96,1.28;stroke-dashoffset:0;stroke-width:0.8;"/>
     </g>
     <g id="line2d_104">
      <g>
       <use style="stroke:#000000;stroke-width:0.6;" x="90" xlink:href="#madc0bef430" y="138.962872"/>
      </g>
     </g>
    </g>
    <g id="ytick_32">
     <g id="line2d_105">
      <path clip-path="url(#p2b63705621)" d="M 90 127.905832 
L 648 127.905832 
" style="fill:none;stroke:#b0b0b0;stroke-dasharray:2.96,1.28;stroke-dashoffset:0;stroke-width:0.8;"/>
     </g>
     <g id="line2d_106">
      <g>
       <use style="stroke:#000000;stroke-width:0.6;" x="90" xlink:href="#madc0bef430" y="127.905832"/>
      </g>
     </g>
    </g>
    <g id="ytick_33">
     <g id="line2d_107">
      <path clip-path="url(#p2b63705621)" d="M 90 105.791751 
L 648 105.791751 
" style="fill:none;stroke:#b0b0b0;stroke-dasharray:2.96,1.28;stroke-dashoffset:0;stroke-width:0.8;"/>
     </g>
     <g id="line2d_108">
      <g>
       <use style="stroke:#000000;stroke-width:0.6;" x="90" xlink:href="#madc0bef430" y="105.791751"/>
      </g>
     </g>
    </g>
    <g id="ytick_34">
     <g id="line2d_109">
      <path clip-path="url(#p2b63705621)" d="M 90 94.734711 
L 648 94.734711 
" style="fill:none;stroke:#b0b0b0;stroke-dasharray:2.96,1.28;stroke-dashoffset:0;stroke-width:0.8;"/>
     </g>
     <g id="line2d_110">
      <g>
       <use style="stroke:#000000;stroke-width:0.6;" x="90" xlink:href="#madc0bef430" y="94.734711"/>
      </g>
     </g>
    </g>
    <g id="ytick_35">
     <g id="line2d_111">
      <path clip-path="url(#p2b63705621)" d="M 90 83.677671 
L 648 83.677671 
" style="fill:none;stroke:#b0b0b0;stroke-dasharray:2.96,1.28;stroke-dashoffset:0;stroke-width:0.8;"/>
     </g>
     <g id="line2d_112">
      <g>
       <use style="stroke:#000000;stroke-width:0.6;" x="90" xlink:href="#madc0bef430" y="83.677671"/>
      </g>
     </g>
    </g>
    <g id="ytick_36">
     <g id="line2d_113">
      <path clip-path="url(#p2b63705621)" d="M 90 72.62063 
L 648 72.62063 
" style="fill:none;stroke:#b0b0b0;stroke-dasharray:2.96,1.28;stroke-dashoffset:0;stroke-width:0.8;"/>
     </g>
     <g id="line2d_114">
      <g>
       <use style="stroke:#000000;stroke-width:0.6;" x="90" xlink:href="#madc0bef430" y="72.62063"/>
      </g>
     </g>
    </g>
    <g id="text_16">
     <!-- Напряжение на конденсаторе (В) -->
     <g transform="translate(61.017187 343.589531)rotate(-90)scale(0.1 -0.1)">
      <defs>
       <path d="M 628 4666 
L 1259 4666 
L 1259 2753 
L 3553 2753 
L 3553 4666 
L 4184 4666 
L 4184 0 
L 3553 0 
L 3553 2222 
L 1259 2222 
L 1259 0 
L 628 0 
L 628 4666 
z
" id="DejaVuSans-41d" transform="scale(0.015625)"/>
       <path d="M 2194 1759 
Q 1497 1759 1228 1600 
Q 959 1441 959 1056 
Q 959 750 1161 570 
Q 1363 391 1709 391 
Q 2188 391 2477 730 
Q 2766 1069 2766 1631 
L 2766 1759 
L 2194 1759 
z
M 3341 1997 
L 3341 0 
L 2766 0 
L 2766 531 
Q 2569 213 2275 61 
Q 1981 -91 1556 -91 
Q 1019 -91 701 211 
Q 384 513 384 1019 
Q 384 1609 779 1909 
Q 1175 2209 1959 2209 
L 2766 2209 
L 2766 2266 
Q 2766 2663 2505 2880 
Q 2244 3097 1772 3097 
Q 1472 3097 1187 3025 
Q 903 2953 641 2809 
L 641 3341 
Q 956 3463 1253 3523 
Q 1550 3584 1831 3584 
Q 2591 3584 2966 3190 
Q 3341 2797 3341 1997 
z
" id="DejaVuSans-430" transform="scale(0.015625)"/>
       <path d="M 3603 3500 
L 3603 0 
L 3025 0 
L 3025 3041 
L 1159 3041 
L 1159 0 
L 581 0 
L 581 3500 
L 3603 3500 
z
" id="DejaVuSans-43f" transform="scale(0.015625)"/>
       <path d="M 2597 3500 
L 3169 3500 
L 3169 1856 
L 4697 3500 
L 5366 3500 
L 4109 2153 
L 5547 0 
L 4931 0 
L 3753 1769 
L 3169 1141 
L 3169 0 
L 2597 0 
L 2597 1141 
L 2013 1769 
L 834 0 
L 219 0 
L 1656 2153 
L 400 3500 
L 1069 3500 
L 2597 1856 
L 2597 3500 
z
" id="DejaVuSans-436" transform="scale(0.015625)"/>
       <path d="M 581 3500 
L 1159 3500 
L 1159 2072 
L 3025 2072 
L 3025 3500 
L 3603 3500 
L 3603 0 
L 3025 0 
L 3025 1613 
L 1159 1613 
L 1159 0 
L 581 0 
L 581 3500 
z
" id="DejaVuSans-43d" transform="scale(0.015625)"/>
       <path d="M 3578 3500 
L 3578 0 
L 3006 0 
L 3006 2809 
L 1319 0 
L 581 0 
L 581 3500 
L 1153 3500 
L 1153 697 
L 2838 3500 
L 3578 3500 
z
" id="DejaVuSans-438" transform="scale(0.015625)"/>
       <path d="M 581 3500 
L 1153 3500 
L 1153 1856 
L 2775 3500 
L 3481 3500 
L 2144 2147 
L 3653 0 
L 3009 0 
L 1769 1766 
L 1153 1141 
L 1153 0 
L 581 0 
L 581 3500 
z
" id="DejaVuSans-43a" transform="scale(0.015625)"/>
       <path d="M 1959 3097 
Q 1497 3097 1228 2736 
Q 959 2375 959 1747 
Q 959 1119 1226 758 
Q 1494 397 1959 397 
Q 2419 397 2687 759 
Q 2956 1122 2956 1747 
Q 2956 2369 2687 2733 
Q 2419 3097 1959 3097 
z
M 1959 3584 
Q 2709 3584 3137 3096 
Q 3566 2609 3566 1747 
Q 3566 888 3137 398 
Q 2709 -91 1959 -91 
Q 1206 -91 779 398 
Q 353 888 353 1747 
Q 353 2609 779 3096 
Q 1206 3584 1959 3584 
z
" id="DejaVuSans-43e" transform="scale(0.015625)"/>
       <path d="M 1384 459 
L 3053 459 
L 3053 3041 
L 1844 3041 
L 1844 2603 
Q 1844 1316 1475 628 
L 1384 459 
z
M 550 459 
Q 834 584 959 850 
Q 1266 1509 1266 2838 
L 1266 3500 
L 3631 3500 
L 3631 459 
L 4091 459 
L 4091 -884 
L 3631 -884 
L 3631 0 
L 794 0 
L 794 -884 
L 334 -884 
L 334 459 
L 550 459 
z
" id="DejaVuSans-434" transform="scale(0.015625)"/>
       <path d="M 3122 3366 
L 3122 2828 
Q 2878 2963 2633 3030 
Q 2388 3097 2138 3097 
Q 1578 3097 1268 2742 
Q 959 2388 959 1747 
Q 959 1106 1268 751 
Q 1578 397 2138 397 
Q 2388 397 2633 464 
Q 2878 531 3122 666 
L 3122 134 
Q 2881 22 2623 -34 
Q 2366 -91 2075 -91 
Q 1284 -91 818 406 
Q 353 903 353 1747 
Q 353 2603 823 3093 
Q 1294 3584 2113 3584 
Q 2378 3584 2631 3529 
Q 2884 3475 3122 3366 
z
" id="DejaVuSans-441" transform="scale(0.015625)"/>
       <path d="M 188 3500 
L 3541 3500 
L 3541 3041 
L 2147 3041 
L 2147 0 
L 1581 0 
L 1581 3041 
L 188 3041 
L 188 3500 
z
" id="DejaVuSans-442" transform="scale(0.015625)"/>
      </defs>
      <use xlink:href="#DejaVuSans-41d"/>
      <use x="75.195312" xlink:href="#DejaVuSans-430"/>
      <use x="136.474609" xlink:href="#DejaVuSans-43f"/>
      <use x="201.855469" xlink:href="#DejaVuSans-440"/>
      <use x="265.332031" xlink:href="#DejaVuSans-44f"/>
      <use x="325.488281" xlink:href="#DejaVuSans-436"/>
      <use x="415.576172" xlink:href="#DejaVuSans-435"/>
      <use x="477.099609" xlink:href="#DejaVuSans-43d"/>
      <use x="542.480469" xlink:href="#DejaVuSans-438"/>
      <use x="607.470703" xlink:href="#DejaVuSans-435"/>
      <use x="668.994141" xlink:href="#DejaVuSans-20"/>
      <use x="700.78125" xlink:href="#DejaVuSans-43d"/>
      <use x="766.162109" xlink:href="#DejaVuSans-430"/>
      <use x="827.441406" xlink:href="#DejaVuSans-20"/>
      <use x="859.228516" xlink:href="#DejaVuSans-43a"/>
      <use x="919.628906" xlink:href="#DejaVuSans-43e"/>
      <use x="980.810547" xlink:href="#DejaVuSans-43d"/>
      <use x="1046.191406" xlink:href="#DejaVuSans-434"/>
      <use x="1115.332031" xlink:href="#DejaVuSans-435"/>
      <use x="1176.855469" xlink:href="#DejaVuSans-43d"/>
      <use x="1242.236328" xlink:href="#DejaVuSans-441"/>
      <use x="1297.216797" xlink:href="#DejaVuSans-430"/>
      <use x="1358.496094" xlink:href="#DejaVuSans-442"/>
      <use x="1416.748047" xlink:href="#DejaVuSans-43e"/>
      <use x="1477.929688" xlink:href="#DejaVuSans-440"/>
      <use x="1541.40625" xlink:href="#DejaVuSans-435"/>
      <use x="1602.929688" xlink:href="#DejaVuSans-20"/>
      <use x="1634.716797" xlink:href="#DejaVuSans-28"/>
      <use x="1673.730469" xlink:href="#DejaVuSans-412"/>
      <use x="1742.333984" xlink:href="#DejaVuSans-29"/>
     </g>
    </g>
   </g>
   <g id="line2d_115">
    <path clip-path="url(#p2b63705621)" d="M 90 447.078357 
L 90.6138 441.151783 
L 92.4552 432.261923 
L 93.069 426.335349 
L 94.2966 420.408775 
L 94.9104 414.482202 
L 95.5242 414.482202 
L 96.138 408.555628 
L 96.7518 408.555628 
L 97.3656 402.629055 
L 97.9794 402.629055 
L 98.5932 393.739194 
L 106.5726 355.216466 
L 107.1864 355.216466 
L 107.8002 349.289892 
L 110.2554 337.436745 
L 110.8692 337.436745 
L 111.483 331.510172 
L 112.0968 331.510172 
L 117.0072 307.803877 
L 117.621 307.803877 
L 120.0762 295.95073 
L 120.69 295.95073 
L 123.1452 284.097583 
L 123.759 284.097583 
L 124.9866 278.171009 
L 125.6004 278.171009 
L 126.828 272.244436 
L 127.4418 272.244436 
L 128.6694 266.317862 
L 129.2832 266.317862 
L 130.5108 260.391288 
L 131.7384 260.391288 
L 132.3522 254.464715 
L 132.966 254.464715 
L 133.5798 251.501428 
L 134.1936 251.501428 
L 135.4212 245.574854 
L 136.035 245.574854 
L 136.6488 242.611568 
L 137.2626 242.611568 
L 138.4902 236.684994 
L 139.7178 236.684994 
L 140.9454 230.75842 
L 142.173 230.75842 
L 143.4006 224.831847 
L 144.0144 224.831847 
L 144.6282 221.86856 
L 145.242 221.86856 
L 145.8558 218.905273 
L 146.4696 218.905273 
L 147.0834 215.941986 
L 147.6972 215.941986 
L 148.311 212.9787 
L 150.1524 212.9787 
L 150.7662 207.052126 
L 151.9938 207.052126 
L 152.6076 204.088839 
L 153.2214 204.088839 
L 153.8352 201.125552 
L 155.0628 201.125552 
L 155.6766 198.162266 
L 156.2904 198.162266 
L 156.9042 195.198979 
L 157.518 195.198979 
L 158.1318 192.235692 
L 159.9732 192.235692 
L 161.2008 186.309118 
L 162.4284 186.309118 
L 163.0422 183.345832 
L 164.2698 183.345832 
L 164.8836 180.382545 
L 165.4974 180.382545 
L 166.1112 177.419258 
L 167.9526 177.419258 
L 168.5664 174.455971 
L 169.1802 174.455971 
L 169.794 171.492684 
L 171.0216 171.492684 
L 171.6354 168.529398 
L 173.4768 168.529398 
L 174.7044 162.602824 
L 178.3872 162.602824 
L 179.6148 156.67625 
L 182.07 156.67625 
L 182.6838 153.712964 
L 184.5252 153.712964 
L 185.139 150.749677 
L 186.3666 150.749677 
L 186.9804 147.78639 
L 188.208 147.78639 
L 188.8218 144.823103 
L 191.277 144.823103 
L 191.8908 141.859817 
L 194.346 141.859817 
L 194.9598 138.89653 
L 197.415 138.89653 
L 198.0288 135.933243 
L 200.484 135.933243 
L 201.0978 132.969956 
L 202.3254 132.969956 
L 202.9392 130.006669 
L 203.553 132.969956 
L 204.1668 130.006669 
L 206.0082 130.006669 
L 206.622 127.043383 
L 210.9186 127.043383 
L 211.5324 124.080096 
L 214.6014 124.080096 
L 215.2152 121.116809 
L 218.2842 121.116809 
L 218.898 118.153522 
L 221.3532 118.153522 
L 221.967 115.190235 
L 228.7188 115.190235 
L 229.3326 112.226949 
L 234.243 112.226949 
L 234.8568 109.263662 
L 235.4706 112.226949 
L 236.0844 109.263662 
L 239.1534 109.263662 
L 239.7672 106.300375 
L 240.381 109.263662 
L 240.9948 106.300375 
L 246.519 106.300375 
L 247.1328 103.337088 
L 252.657 103.337088 
L 253.2708 100.373801 
L 258.795 100.373801 
L 259.4088 97.410515 
L 260.0226 100.373801 
L 260.6364 100.373801 
L 261.2502 97.410515 
L 266.7744 97.410515 
L 267.3882 94.447228 
L 268.002 97.410515 
L 268.6158 97.410515 
L 269.2296 94.447228 
L 269.8434 97.410515 
L 270.4572 97.410515 
L 271.071 94.447228 
L 275.9814 94.447228 
L 276.5952 91.483941 
L 277.209 94.447228 
L 277.8228 94.447228 
L 278.4366 91.483941 
L 279.0504 91.483941 
L 279.6642 94.447228 
L 281.5056 94.447228 
L 282.1194 91.483941 
L 293.7816 91.483941 
L 294.3954 88.520654 
L 295.0092 91.483941 
L 295.623 88.520654 
L 309.1266 88.520654 
L 309.7404 85.557367 
L 310.3542 85.557367 
L 310.968 88.520654 
L 311.5818 88.520654 
L 312.1956 85.557367 
L 312.8094 85.557367 
L 313.4232 88.520654 
L 314.037 85.557367 
L 324.4716 85.557367 
L 325.0854 82.594081 
L 325.6992 88.520654 
L 326.313 91.483941 
L 326.9268 91.483941 
L 327.5406 97.410515 
L 328.7682 103.337088 
L 329.382 109.263662 
L 329.9958 109.263662 
L 330.6096 115.190235 
L 331.2234 115.190235 
L 331.8372 121.116809 
L 333.0648 127.043383 
L 333.6786 127.043383 
L 334.2924 132.969956 
L 334.9062 132.969956 
L 341.0442 162.602824 
L 341.658 162.602824 
L 344.727 177.419258 
L 345.3408 177.419258 
L 345.9546 183.345832 
L 346.5684 183.345832 
L 347.1822 186.309118 
L 347.796 186.309118 
L 350.865 201.125552 
L 351.4788 201.125552 
L 353.934 212.9787 
L 354.5478 212.9787 
L 355.7754 218.905273 
L 356.3892 218.905273 
L 357.003 221.86856 
L 357.6168 221.86856 
L 359.4582 230.75842 
L 360.072 230.75842 
L 360.6858 233.721707 
L 361.2996 233.721707 
L 362.5272 239.648281 
L 363.141 239.648281 
L 364.3686 245.574854 
L 364.9824 245.574854 
L 365.5962 248.538141 
L 366.21 248.538141 
L 366.8238 251.501428 
L 367.4376 251.501428 
L 368.0514 254.464715 
L 368.6652 254.464715 
L 369.279 257.428002 
L 369.8928 257.428002 
L 370.5066 260.391288 
L 371.1204 260.391288 
L 371.7342 263.354575 
L 372.348 263.354575 
L 373.5756 269.281149 
L 374.8032 269.281149 
L 375.417 272.244436 
L 376.0308 272.244436 
L 376.6446 275.207722 
L 377.2584 275.207722 
L 378.486 281.134296 
L 379.7136 281.134296 
L 380.3274 284.097583 
L 380.9412 284.097583 
L 381.555 287.06087 
L 382.1688 287.06087 
L 382.7826 290.024156 
L 383.3964 290.024156 
L 384.0102 292.987443 
L 385.2378 292.987443 
L 385.8516 295.95073 
L 386.4654 295.95073 
L 387.0792 298.914017 
L 387.693 298.914017 
L 388.3068 301.877304 
L 388.9206 301.877304 
L 389.5344 304.84059 
L 391.3758 304.84059 
L 392.6034 310.767164 
L 393.831 310.767164 
L 394.4448 313.730451 
L 395.0586 313.730451 
L 395.6724 316.693738 
L 397.5138 316.693738 
L 398.1276 319.657024 
L 398.7414 319.657024 
L 399.3552 322.620311 
L 400.5828 322.620311 
L 401.1966 325.583598 
L 401.8104 325.583598 
L 402.4242 328.546885 
L 403.6518 328.546885 
L 404.2656 331.510172 
L 406.107 331.510172 
L 406.7208 334.473458 
L 407.9484 334.473458 
L 408.5622 337.436745 
L 409.7898 337.436745 
L 410.4036 340.400032 
L 412.245 340.400032 
L 412.8588 343.363319 
L 413.4726 343.363319 
L 414.0864 346.326606 
L 415.9278 346.326606 
L 416.5416 349.289892 
L 417.7692 349.289892 
L 418.383 352.253179 
L 418.9968 352.253179 
L 419.6106 355.216466 
L 423.2934 355.216466 
L 423.9072 358.179753 
L 425.1348 358.179753 
L 425.7486 361.143039 
L 426.9762 361.143039 
L 427.59 364.106326 
L 430.0452 364.106326 
L 430.659 367.069613 
L 432.5004 367.069613 
L 433.1142 370.0329 
L 434.3418 370.0329 
L 434.9556 372.996187 
L 437.4108 372.996187 
L 438.0246 375.959473 
L 440.4798 375.959473 
L 441.0936 378.92276 
L 441.7074 375.959473 
L 442.3212 378.92276 
L 443.5488 378.92276 
L 444.1626 381.886047 
L 446.6178 381.886047 
L 447.2316 384.849334 
L 449.6868 384.849334 
L 450.3006 387.812621 
L 452.7558 387.812621 
L 453.3696 390.775907 
L 457.0524 390.775907 
L 457.6662 393.739194 
L 460.1214 393.739194 
L 460.7352 396.702481 
L 463.1904 396.702481 
L 463.8042 399.665768 
L 464.418 396.702481 
L 465.0318 399.665768 
L 466.8732 399.665768 
L 467.487 402.629055 
L 473.625 402.629055 
L 474.2388 405.592341 
L 478.5354 405.592341 
L 479.1492 408.555628 
L 482.2182 408.555628 
L 482.832 411.518915 
L 488.3562 411.518915 
L 488.97 414.482202 
L 495.108 414.482202 
L 495.7218 417.445489 
L 500.6322 417.445489 
L 501.246 420.408775 
L 501.8598 417.445489 
L 502.4736 420.408775 
L 509.2254 420.408775 
L 509.8392 423.372062 
L 515.3634 423.372062 
L 515.9772 426.335349 
L 525.798 426.335349 
L 526.4118 429.298636 
L 536.2326 429.298636 
L 536.8464 432.261923 
L 537.4602 429.298636 
L 538.074 432.261923 
L 547.8948 432.261923 
L 548.5086 435.225209 
L 561.3984 435.225209 
L 562.0122 438.188496 
L 562.626 435.225209 
L 564.4674 435.225209 
L 565.0812 438.188496 
L 565.695 438.188496 
L 566.3088 435.225209 
L 566.9226 438.188496 
L 579.1986 438.188496 
L 579.8124 441.151783 
L 580.4262 438.188496 
L 585.3366 438.188496 
L 585.9504 441.151783 
L 587.178 441.151783 
L 587.7918 438.188496 
L 588.4056 441.151783 
L 604.9782 441.151783 
L 605.592 444.11507 
L 606.2058 441.151783 
L 607.4334 441.151783 
L 608.0472 444.11507 
L 639.9648 444.11507 
L 640.5786 447.078357 
L 640.5786 447.078357 
" style="fill:none;stroke:#1f77b4;stroke-linecap:square;stroke-width:1.5;"/>
    <defs>
     <path d="M 0 3 
C 0.795609 3 1.55874 2.683901 2.12132 2.12132 
C 2.683901 1.55874 3 0.795609 3 0 
C 3 -0.795609 2.683901 -1.55874 2.12132 -2.12132 
C 1.55874 -2.683901 0.795609 -3 0 -3 
C -0.795609 -3 -1.55874 -2.683901 -2.12132 -2.12132 
C -2.683901 -1.55874 -3 -0.795609 -3 0 
C -3 0.795609 -2.683901 1.55874 -2.12132 2.12132 
C -1.55874 2.683901 -0.795609 3 0 3 
z
" id="m45d9c53c27" style="stroke:#1f77b4;"/>
    </defs>
    <g clip-path="url(#p2b63705621)">
     <use style="fill:#1f77b4;stroke:#1f77b4;" x="90" xlink:href="#m45d9c53c27" y="447.078357"/>
     <use style="fill:#1f77b4;stroke:#1f77b4;" x="108.414" xlink:href="#m45d9c53c27" y="346.326606"/>
     <use style="fill:#1f77b4;stroke:#1f77b4;" x="126.828" xlink:href="#m45d9c53c27" y="272.244436"/>
     <use style="fill:#1f77b4;stroke:#1f77b4;" x="145.242" xlink:href="#m45d9c53c27" y="221.86856"/>
     <use style="fill:#1f77b4;stroke:#1f77b4;" x="163.656" xlink:href="#m45d9c53c27" y="183.345832"/>
     <use style="fill:#1f77b4;stroke:#1f77b4;" x="182.07" xlink:href="#m45d9c53c27" y="156.67625"/>
     <use style="fill:#1f77b4;stroke:#1f77b4;" x="200.484" xlink:href="#m45d9c53c27" y="135.933243"/>
     <use style="fill:#1f77b4;stroke:#1f77b4;" x="218.898" xlink:href="#m45d9c53c27" y="118.153522"/>
     <use style="fill:#1f77b4;stroke:#1f77b4;" x="237.312" xlink:href="#m45d9c53c27" y="109.263662"/>
     <use style="fill:#1f77b4;stroke:#1f77b4;" x="255.726" xlink:href="#m45d9c53c27" y="100.373801"/>
     <use style="fill:#1f77b4;stroke:#1f77b4;" x="274.14" xlink:href="#m45d9c53c27" y="94.447228"/>
     <use style="fill:#1f77b4;stroke:#1f77b4;" x="292.554" xlink:href="#m45d9c53c27" y="91.483941"/>
     <use style="fill:#1f77b4;stroke:#1f77b4;" x="310.968" xlink:href="#m45d9c53c27" y="88.520654"/>
     <use style="fill:#1f77b4;stroke:#1f77b4;" x="329.382" xlink:href="#m45d9c53c27" y="109.263662"/>
     <use style="fill:#1f77b4;stroke:#1f77b4;" x="347.796" xlink:href="#m45d9c53c27" y="186.309118"/>
     <use style="fill:#1f77b4;stroke:#1f77b4;" x="366.21" xlink:href="#m45d9c53c27" y="248.538141"/>
     <use style="fill:#1f77b4;stroke:#1f77b4;" x="384.624" xlink:href="#m45d9c53c27" y="292.987443"/>
     <use style="fill:#1f77b4;stroke:#1f77b4;" x="403.038" xlink:href="#m45d9c53c27" y="328.546885"/>
     <use style="fill:#1f77b4;stroke:#1f77b4;" x="421.452" xlink:href="#m45d9c53c27" y="355.216466"/>
     <use style="fill:#1f77b4;stroke:#1f77b4;" x="439.866" xlink:href="#m45d9c53c27" y="375.959473"/>
     <use style="fill:#1f77b4;stroke:#1f77b4;" x="458.28" xlink:href="#m45d9c53c27" y="393.739194"/>
     <use style="fill:#1f77b4;stroke:#1f77b4;" x="476.694" xlink:href="#m45d9c53c27" y="405.592341"/>
     <use style="fill:#1f77b4;stroke:#1f77b4;" x="495.108" xlink:href="#m45d9c53c27" y="414.482202"/>
     <use style="fill:#1f77b4;stroke:#1f77b4;" x="513.522" xlink:href="#m45d9c53c27" y="423.372062"/>
     <use style="fill:#1f77b4;stroke:#1f77b4;" x="531.936" xlink:href="#m45d9c53c27" y="429.298636"/>
     <use style="fill:#1f77b4;stroke:#1f77b4;" x="550.35" xlink:href="#m45d9c53c27" y="435.225209"/>
     <use style="fill:#1f77b4;stroke:#1f77b4;" x="568.764" xlink:href="#m45d9c53c27" y="438.188496"/>
     <use style="fill:#1f77b4;stroke:#1f77b4;" x="587.178" xlink:href="#m45d9c53c27" y="441.151783"/>
     <use style="fill:#1f77b4;stroke:#1f77b4;" x="605.592" xlink:href="#m45d9c53c27" y="444.11507"/>
     <use style="fill:#1f77b4;stroke:#1f77b4;" x="624.006" xlink:href="#m45d9c53c27" y="444.11507"/>
    </g>
   </g>
   <g id="patch_3">
    <path d="M 90 448.56 
L 90 60.48 
" style="fill:none;stroke:#000000;stroke-linecap:square;stroke-linejoin:miter;stroke-width:0.8;"/>
   </g>
   <g id="patch_4">
    <path d="M 648 448.56 
L 648 60.48 
" style="fill:none;stroke:#000000;stroke-linecap:square;stroke-linejoin:miter;stroke-width:0.8;"/>
   </g>
   <g id="patch_5">
    <path d="M 90 448.56 
L 648 448.56 
" style="fill:none;stroke:#000000;stroke-linecap:square;stroke-linejoin:miter;stroke-width:0.8;"/>
   </g>
   <g id="patch_6">
    <path d="M 90 60.48 
L 648 60.48 
" style="fill:none;stroke:#000000;stroke-linecap:square;stroke-linejoin:miter;stroke-width:0.8;"/>
   </g>
   <g id="text_17">
    <!-- Время зарядки 4.21 c -->
    <g transform="translate(424.8 194.248073)scale(0.1 -0.1)">
     <defs>
      <path d="M 2206 1888 
Q 2594 1813 2809 1584 
Q 3025 1356 3025 1019 
Q 3025 478 2622 193 
Q 2219 -91 1475 -91 
Q 1225 -91 961 -47 
Q 697 -3 416 84 
L 416 619 
Q 638 503 903 445 
Q 1169 388 1459 388 
Q 1931 388 2195 563 
Q 2459 738 2459 1019 
Q 2459 1294 2225 1461 
Q 1991 1628 1563 1628 
L 1100 1628 
L 1100 2103 
L 1584 2103 
Q 1947 2103 2158 2242 
Q 2369 2381 2369 2600 
Q 2369 2800 2151 2944 
Q 1934 3088 1563 3088 
Q 1341 3088 1089 3047 
Q 838 3006 534 2916 
L 534 3438 
Q 841 3513 1106 3550 
Q 1372 3588 1609 3588 
Q 2222 3588 2576 3342 
Q 2931 3097 2931 2656 
Q 2931 2366 2743 2164 
Q 2556 1963 2206 1888 
z
" id="DejaVuSans-437" transform="scale(0.015625)"/>
     </defs>
     <use xlink:href="#DejaVuSans-412"/>
     <use x="68.603516" xlink:href="#DejaVuSans-440"/>
     <use x="132.080078" xlink:href="#DejaVuSans-435"/>
     <use x="193.603516" xlink:href="#DejaVuSans-43c"/>
     <use x="269.042969" xlink:href="#DejaVuSans-44f"/>
     <use x="329.199219" xlink:href="#DejaVuSans-20"/>
     <use x="360.986328" xlink:href="#DejaVuSans-437"/>
     <use x="414.160156" xlink:href="#DejaVuSans-430"/>
     <use x="475.439453" xlink:href="#DejaVuSans-440"/>
     <use x="538.916016" xlink:href="#DejaVuSans-44f"/>
     <use x="599.072266" xlink:href="#DejaVuSans-434"/>
     <use x="668.212891" xlink:href="#DejaVuSans-43a"/>
     <use x="728.613281" xlink:href="#DejaVuSans-438"/>
     <use x="793.603516" xlink:href="#DejaVuSans-20"/>
     <use x="825.390625" xlink:href="#DejaVuSans-34"/>
     <use x="889.013672" xlink:href="#DejaVuSans-2e"/>
     <use x="920.800781" xlink:href="#DejaVuSans-32"/>
     <use x="984.423828" xlink:href="#DejaVuSans-31"/>
     <use x="1048.046875" xlink:href="#DejaVuSans-20"/>
     <use x="1079.833984" xlink:href="#DejaVuSans-63"/>
    </g>
   </g>
   <g id="text_18">
    <!-- Время разряда 5.66 c -->
    <g transform="translate(424.8 227.419194)scale(0.1 -0.1)">
     <use xlink:href="#DejaVuSans-412"/>
     <use x="68.603516" xlink:href="#DejaVuSans-440"/>
     <use x="132.080078" xlink:href="#DejaVuSans-435"/>
     <use x="193.603516" xlink:href="#DejaVuSans-43c"/>
     <use x="269.042969" xlink:href="#DejaVuSans-44f"/>
     <use x="329.199219" xlink:href="#DejaVuSans-20"/>
     <use x="360.986328" xlink:href="#DejaVuSans-440"/>
     <use x="424.462891" xlink:href="#DejaVuSans-430"/>
     <use x="485.742188" xlink:href="#DejaVuSans-437"/>
     <use x="538.916016" xlink:href="#DejaVuSans-440"/>
     <use x="602.392578" xlink:href="#DejaVuSans-44f"/>
     <use x="662.548828" xlink:href="#DejaVuSans-434"/>
     <use x="731.689453" xlink:href="#DejaVuSans-430"/>
     <use x="792.96875" xlink:href="#DejaVuSans-20"/>
     <use x="824.755859" xlink:href="#DejaVuSans-35"/>
     <use x="888.378906" xlink:href="#DejaVuSans-2e"/>
     <use x="920.166016" xlink:href="#DejaVuSans-36"/>
     <use x="983.789062" xlink:href="#DejaVuSans-36"/>
     <use x="1047.412109" xlink:href="#DejaVuSans-20"/>
     <use x="1079.199219" xlink:href="#DejaVuSans-63"/>
    </g>
   </g>
   <g id="text_19">
    <!-- Зависимость напряжения конденсатора от времени зарядки -->
    <g transform="translate(174.5025 54.48)scale(0.12 -0.12)">
     <defs>
      <path d="M 1828 4750 
Q 2597 4750 3084 4423 
Q 3572 4097 3572 3541 
Q 3572 3153 3350 2886 
Q 3128 2619 2719 2516 
Q 3172 2419 3426 2112 
Q 3681 1806 3681 1356 
Q 3681 638 3126 273 
Q 2572 -91 1828 -91 
Q 1447 -91 1003 12 
Q 559 116 422 203 
L 422 853 
Q 900 575 1164 508 
Q 1428 441 1816 441 
Q 2403 441 2728 666 
Q 3053 891 3053 1356 
Q 3053 1769 2764 2001 
Q 2475 2234 1866 2234 
L 1228 2234 
L 1228 2753 
L 1891 2753 
Q 2450 2753 2697 2939 
Q 2944 3125 2944 3475 
Q 2944 3834 2689 4026 
Q 2434 4219 1816 4219 
Q 1397 4219 1253 4181 
Q 1109 4144 469 3903 
L 469 4519 
Q 822 4644 1190 4697 
Q 1559 4750 1828 4750 
z
" id="DejaVuSans-417" transform="scale(0.015625)"/>
      <path d="M 1156 1613 
L 1156 459 
L 1975 459 
Q 2369 459 2575 607 
Q 2781 756 2781 1038 
Q 2781 1319 2575 1466 
Q 2369 1613 1975 1613 
L 1156 1613 
z
M 1156 3041 
L 1156 2072 
L 1913 2072 
Q 2238 2072 2444 2201 
Q 2650 2331 2650 2563 
Q 2650 2794 2444 2917 
Q 2238 3041 1913 3041 
L 1156 3041 
z
M 581 3500 
L 1950 3500 
Q 2566 3500 2897 3275 
Q 3228 3050 3228 2634 
Q 3228 2313 3059 2123 
Q 2891 1934 2559 1888 
Q 2956 1813 3175 1575 
Q 3394 1338 3394 981 
Q 3394 513 3033 256 
Q 2672 0 2003 0 
L 581 0 
L 581 3500 
z
" id="DejaVuSans-432" transform="scale(0.015625)"/>
      <path d="M 2781 1038 
Q 2781 1319 2576 1466 
Q 2372 1613 1978 1613 
L 1159 1613 
L 1159 459 
L 1978 459 
Q 2372 459 2576 607 
Q 2781 756 2781 1038 
z
M 581 3500 
L 1159 3500 
L 1159 2072 
L 2003 2072 
Q 2672 2072 3033 1817 
Q 3394 1563 3394 1038 
Q 3394 513 3033 256 
Q 2672 0 2003 0 
L 581 0 
L 581 3500 
z
" id="DejaVuSans-44c" transform="scale(0.015625)"/>
     </defs>
     <use xlink:href="#DejaVuSans-417"/>
     <use x="64.111328" xlink:href="#DejaVuSans-430"/>
     <use x="125.390625" xlink:href="#DejaVuSans-432"/>
     <use x="184.326172" xlink:href="#DejaVuSans-438"/>
     <use x="249.316406" xlink:href="#DejaVuSans-441"/>
     <use x="304.296875" xlink:href="#DejaVuSans-438"/>
     <use x="369.287109" xlink:href="#DejaVuSans-43c"/>
     <use x="444.726562" xlink:href="#DejaVuSans-43e"/>
     <use x="505.908203" xlink:href="#DejaVuSans-441"/>
     <use x="560.888672" xlink:href="#DejaVuSans-442"/>
     <use x="619.140625" xlink:href="#DejaVuSans-44c"/>
     <use x="678.076172" xlink:href="#DejaVuSans-20"/>
     <use x="709.863281" xlink:href="#DejaVuSans-43d"/>
     <use x="775.244141" xlink:href="#DejaVuSans-430"/>
     <use x="836.523438" xlink:href="#DejaVuSans-43f"/>
     <use x="901.904297" xlink:href="#DejaVuSans-440"/>
     <use x="965.380859" xlink:href="#DejaVuSans-44f"/>
     <use x="1025.537109" xlink:href="#DejaVuSans-436"/>
     <use x="1115.625" xlink:href="#DejaVuSans-435"/>
     <use x="1177.148438" xlink:href="#DejaVuSans-43d"/>
     <use x="1242.529297" xlink:href="#DejaVuSans-438"/>
     <use x="1307.519531" xlink:href="#DejaVuSans-44f"/>
     <use x="1367.675781" xlink:href="#DejaVuSans-20"/>
     <use x="1399.462891" xlink:href="#DejaVuSans-43a"/>
     <use x="1459.863281" xlink:href="#DejaVuSans-43e"/>
     <use x="1521.044922" xlink:href="#DejaVuSans-43d"/>
     <use x="1586.425781" xlink:href="#DejaVuSans-434"/>
     <use x="1655.566406" xlink:href="#DejaVuSans-435"/>
     <use x="1717.089844" xlink:href="#DejaVuSans-43d"/>
     <use x="1782.470703" xlink:href="#DejaVuSans-441"/>
     <use x="1837.451172" xlink:href="#DejaVuSans-430"/>
     <use x="1898.730469" xlink:href="#DejaVuSans-442"/>
     <use x="1956.982422" xlink:href="#DejaVuSans-43e"/>
     <use x="2018.164062" xlink:href="#DejaVuSans-440"/>
     <use x="2081.640625" xlink:href="#DejaVuSans-430"/>
     <use x="2142.919922" xlink:href="#DejaVuSans-20"/>
     <use x="2174.707031" xlink:href="#DejaVuSans-43e"/>
     <use x="2235.888672" xlink:href="#DejaVuSans-442"/>
     <use x="2294.140625" xlink:href="#DejaVuSans-20"/>
     <use x="2325.927734" xlink:href="#DejaVuSans-432"/>
     <use x="2384.863281" xlink:href="#DejaVuSans-440"/>
     <use x="2448.339844" xlink:href="#DejaVuSans-435"/>
     <use x="2509.863281" xlink:href="#DejaVuSans-43c"/>
     <use x="2585.302734" xlink:href="#DejaVuSans-435"/>
     <use x="2646.826172" xlink:href="#DejaVuSans-43d"/>
     <use x="2712.207031" xlink:href="#DejaVuSans-438"/>
     <use x="2777.197266" xlink:href="#DejaVuSans-20"/>
     <use x="2808.984375" xlink:href="#DejaVuSans-437"/>
     <use x="2862.158203" xlink:href="#DejaVuSans-430"/>
     <use x="2923.4375" xlink:href="#DejaVuSans-440"/>
     <use x="2986.914062" xlink:href="#DejaVuSans-44f"/>
     <use x="3047.070312" xlink:href="#DejaVuSans-434"/>
     <use x="3116.210938" xlink:href="#DejaVuSans-43a"/>
     <use x="3176.611328" xlink:href="#DejaVuSans-438"/>
    </g>
   </g>
   <g id="legend_1">
    <g id="patch_7">
     <path d="M 590.435938 83.158125 
L 641 83.158125 
Q 643 83.158125 643 81.158125 
L 643 67.48 
Q 643 65.48 641 65.48 
L 590.435938 65.48 
Q 588.435938 65.48 588.435938 67.48 
L 588.435938 81.158125 
Q 588.435938 83.158125 590.435938 83.158125 
z
" style="fill:#ffffff;opacity:0.8;stroke:#cccccc;stroke-linejoin:miter;"/>
    </g>
    <g id="line2d_116">
     <path d="M 592.435938 73.578438 
L 612.435938 73.578438 
" style="fill:none;stroke:#1f77b4;stroke-linecap:square;stroke-width:1.5;"/>
    </g>
    <g id="line2d_117">
     <g>
      <use style="fill:#1f77b4;stroke:#1f77b4;" x="602.435938" xlink:href="#m45d9c53c27" y="73.578438"/>
     </g>
    </g>
    <g id="text_20">
     <!-- V(t) -->
     <g transform="translate(620.435938 77.078438)scale(0.1 -0.1)">
      <defs>
       <path d="M 1831 0 
L 50 4666 
L 709 4666 
L 2188 738 
L 3669 4666 
L 4325 4666 
L 2547 0 
L 1831 0 
z
" id="DejaVuSans-56" transform="scale(0.015625)"/>
       <path d="M 1172 4494 
L 1172 3500 
L 2356 3500 
L 2356 3053 
L 1172 3053 
L 1172 1153 
Q 1172 725 1289 603 
Q 1406 481 1766 481 
L 2356 481 
L 2356 0 
L 1766 0 
Q 1100 0 847 248 
Q 594 497 594 1153 
L 594 3053 
L 172 3053 
L 172 3500 
L 594 3500 
L 594 4494 
L 1172 4494 
z
" id="DejaVuSans-74" transform="scale(0.015625)"/>
      </defs>
      <use xlink:href="#DejaVuSans-56"/>
      <use x="68.408203" xlink:href="#DejaVuSans-28"/>
      <use x="107.421875" xlink:href="#DejaVuSans-74"/>
      <use x="146.630859" xlink:href="#DejaVuSans-29"/>
     </g>
    </g>
   </g>
  </g>
 </g>
 <defs>
  <clipPath id="p2b63705621">
   <rect height="388.08" width="558" x="90" y="60.48"/>
  </clipPath>
 </defs>
</svg>
